<?xml version="1.0" encoding="utf-8"?>
<!-- Generator: Adobe Illustrator 21.1.0, SVG Export Plug-In . SVG Version: 6.00 Build 0)  -->
<svg version="1.1" id="Layer_1" xmlns="http://www.w3.org/2000/svg" xmlns:xlink="http://www.w3.org/1999/xlink" x="0px" y="0px"
	 viewBox="0 0 1290 223.4" style="enable-background:new 0 0 1290 223.4;" xml:space="preserve">
<style type="text/css">
	.st0{fill:#cccccc;}
	.st1{fill:#1E816C;}
	.st1{fill:#1E816C;}
</style>
<title>Asset 24</title>
<path class="st0" d="M128,14.3c-59.3,0-111.4,38.2-111.4,83.2c0,30.2,23.7,56.4,49.8,71.3l-11.9,35.6c0,0,47.8-13.7,92.5-26.1
	c43.9-8.8,94.8-40.8,94.8-80.8C241.8,52.4,187.3,14.3,128,14.3 M151.7,192.5c-30.5,9-116.2,30.9-116.2,30.9l11.9-47.5
	C16.1,158,0,129.4,0,97.4C0,43.4,56.9,0,128,0s128,43.4,128,97.4C256,145.4,212.7,177.8,151.7,192.5"/>
<g>
	<polygon class="st1" points="198.4,74.3 116.1,156.7 92.9,133.5 93,133.4 65.9,106.4 89.1,83.2 116.2,110.3 175.3,51.2 	"/>
	<polygon class="st1" points="335.9,184.1 335.9,126.1 284.6,37 327.8,37 354.4,91 381,37 424.6,37 373.1,126.1 373.1,184.1 	"/>
	<polygon class="st1" points="641.6,37 687.9,37 629.8,108 687.7,184.1 640.6,184.1 603,131.5 601.8,133.2 601.8,184.1 564.4,184.1 
		564.4,37 601.8,37 601.8,91.4 	"/>
	<polygon class="st1" points="770.4,37 816.7,37 758.5,108 816.5,184.1 769.3,184.1 731.8,131.5 730.5,133.2 730.5,184.1 
		693.1,184.1 693.1,37 730.5,37 730.5,91.4 	"/>
	<path class="st1" d="M888.3,121.5l-10.2-43h-1l-10.8,43H888.3z M946.7,184.1h-39.9l-9.5-29.5H858l-9.1,29.5H809l51.3-147h33.9
		L946.7,184.1z"/>
	<path class="st1" d="M466.8,134.8c0,23.7,42,23.7,42.2,0V37h37.6v97.8c-0.2,69-117.6,69-117.4,0V37h37.6V134.8z"/>
</g>
<polygon class="st0" points="1043.1,184.1 957.3,184.1 957.3,37 969.5,37 969.5,171.8 1043.1,171.8 "/>
<path class="st0" d="M1135.3,122.8l-27.2-76.6l-27.2,76.6H1135.3z M1099.1,37h17.9l53.2,147h-12.9l-17.7-49h-63.1l-17.2,49h-12.9
	L1099.1,37z"/>
<path class="st0" d="M1197.4,112.2v59.6h43.6c21.4,0.4,36.8-5.8,36.8-28.9c0-23.3-14.1-30.9-36.8-30.7H1197.4z M1241,100
	c17.2,0,30.1-7.1,30.1-25.8S1257.6,49,1241,49h-43.6v51H1241z M1290,143.2c-0.6,30.3-21.6,40.9-49.2,40.9h-55.7V36.8h55.9
	c22.8,0,42,12.2,42,37.4c0,13.1-4.2,24.9-15.8,31.6C1284.4,111.8,1290.1,125.5,1290,143.2"/>
</svg>
